<svg width="86" height="86" viewBox="0 0 86 86" fill="none" xmlns="http://www.w3.org/2000/svg">
<path d="M1.34375 0H5.375V86H1.34375V0Z" fill="#151515"/>
<path d="M9.40625 0H13.4375V86H9.40625V0Z" fill="#151515"/>
<path d="M17.4688 0H21.5V86H17.4688V0Z" fill="#151515"/>
<path d="M25.5312 0H29.5625V86H25.5312V0Z" fill="#151515"/>
<path d="M33.5938 0H37.625V86H33.5938V0Z" fill="#151515"/>
<path d="M41.6562 0H45.6875V86H41.6562V0Z" fill="#151515"/>
<path d="M49.7188 0H53.75V86H49.7188V0Z" fill="#151515"/>
<path d="M57.7812 0H61.8125V86H57.7812V0Z" fill="#151515"/>
<path d="M65.8438 0H69.875V86H65.8438V0Z" fill="#151515"/>
<path d="M73.9062 0H77.9375V86H73.9062V0Z" fill="#151515"/>
<path d="M81.9688 0H86V86H81.9688V0Z" fill="#151515"/>
<path d="M0 0H86L42.3281 42.3281L0 86V0Z" fill="#151515"/>
</svg>
